<svg id="Layer_1" data-name="Layer 1" xmlns="http://www.w3.org/2000/svg" viewBox="0 0 125.63 66.78"><defs><style>.cls-1{fill:#fff;}.cls-2{fill:#0039a6;}.cls-3{fill:#ff6e00;}</style></defs><title>Artboard 1</title><path class="cls-1" d="M89.17,12.32a8.09,8.09,0,0,0-1.38-1.82c-4-3.94-11.48-2.86-16.68,2.4C67.54,16.5,66,21.14,66.62,25a15.31,15.31,0,0,1,4.62-10c5.21-5.26,12.67-6.33,16.68-2.4a8.28,8.28,0,0,1,1.37,1.82c0-.09,0-.31,0-.4A8.28,8.28,0,0,0,89.17,12.32ZM68.55,10.05c5.57-5.64,14-6.32,18.92-1.52a10.15,10.15,0,0,1,1.18,1.38,12.25,12.25,0,0,0-2.51-4.68c-5-3.78-12.7-2.84-17.9,2.41A14.78,14.78,0,0,0,64,21.13,15.29,15.29,0,0,1,68.55,10.05Z"/><path class="cls-2" d="M56.33,25.69a7.11,7.11,0,0,0-2.61-3.9,12.62,12.62,0,0,0-5.16-2.19,36.39,36.39,0,0,0-7.44-.66H8.94L8.41,21s2.76.78,1.93,4.36L0,65.91H18L22.11,50h4a9.17,9.17,0,0,1,2.89.4,2.55,2.55,0,0,1,1.6,2,10.24,10.24,0,0,1,.19,2.83c0,1.17-.17,2.41-.35,3.73s-.35,2.6-.5,3.84-.26,2.28-.3,3.13H50l.52-2.07a2.76,2.76,0,0,1-2.08-2.79c.08-1.2.15-2.13.25-3.39.11-1.5.17-3,.17-4.47a15.71,15.71,0,0,0-.54-4.11A8.68,8.68,0,0,0,46,45.88,9.17,9.17,0,0,0,41.66,44l0-.14a23.58,23.58,0,0,0,9.2-4.14,14.6,14.6,0,0,0,5.22-8.31A11.69,11.69,0,0,0,56.33,25.69Zm-19,8.58A6.8,6.8,0,0,1,36,37.1a6.36,6.36,0,0,1-2.05,1.55,7.51,7.51,0,0,1-2.49.67c-.9.09-1.82.14-2.76.14H24.77l2.56-10h4.19a19.64,19.64,0,0,1,2.58.16,5.6,5.6,0,0,1,2.08.68,2.81,2.81,0,0,1,1.21,1.44A4.29,4.29,0,0,1,37.35,34.27Z"/><path class="cls-2" d="M121.72,44.24c3.11-13-8.45-14.8-18.32-14.8a49.86,49.86,0,0,0-15.25,2l-2.56,10a32.9,32.9,0,0,1,12.64-3c4.31,0,8.91.55,7.88,5.14-1.54-.14-4.2-.48-6.6-.48-8.56,0-19,2.2-21.57,13.16-1.79,7.47,3.93,10.48,10.58,10.48a17,17,0,0,0,13.16-6h.14l-1.31,5.09h18.95l.51-2a3.33,3.33,0,0,1-2-3.83Zm-17.49,7.12c-.74,3.09-3.27,6.38-6.83,6.38-2.68,0-3.82-1-3.23-3.43.88-3.7,5.08-4,8.64-4h1.68Z"/><path class="cls-2" d="M73,59.42c0-.1,0-.19.07-.28L80,32a12.27,12.27,0,0,1-16.68-1.11l-8.92,35h20l.54-2.11S72.33,63.4,73,59.42Z"/><path class="cls-2" d="M56.33,25.69a7.11,7.11,0,0,0-2.61-3.9,12.62,12.62,0,0,0-5.16-2.19,36.39,36.39,0,0,0-7.44-.66H8.94L8.41,21s2.76.78,1.93,4.36L0,65.91H18L22.11,50h4a9.17,9.17,0,0,1,2.89.4,2.55,2.55,0,0,1,1.6,2,10.24,10.24,0,0,1,.19,2.83c0,1.17-.17,2.41-.35,3.73s-.35,2.6-.5,3.84-.26,2.28-.3,3.13H50l.52-2.07a2.76,2.76,0,0,1-2.08-2.79c.08-1.2.15-2.13.25-3.39.11-1.5.17-3,.17-4.47a15.71,15.71,0,0,0-.54-4.11A8.68,8.68,0,0,0,46,45.88,9.17,9.17,0,0,0,41.66,44l0-.14a23.58,23.58,0,0,0,9.2-4.14,14.6,14.6,0,0,0,5.22-8.31A11.69,11.69,0,0,0,56.33,25.69Zm-19,8.58A6.8,6.8,0,0,1,36,37.1a6.36,6.36,0,0,1-2.05,1.55,7.51,7.51,0,0,1-2.49.67c-.9.09-1.82.14-2.76.14H24.77l2.56-10h4.19a19.64,19.64,0,0,1,2.58.16,5.6,5.6,0,0,1,2.08.68,2.81,2.81,0,0,1,1.21,1.44A4.29,4.29,0,0,1,37.35,34.27Zm84.37,10c3.11-13-8.45-14.8-18.32-14.8a49.86,49.86,0,0,0-15.25,2l-2.56,10a32.9,32.9,0,0,1,12.64-3c4.31,0,8.91.55,7.88,5.14-1.54-.14-4.2-.48-6.6-.48-8.56,0-19,2.2-21.57,13.16-1.79,7.47,3.93,10.48,10.58,10.48a17,17,0,0,0,13.16-6h.14l-1.31,5.09h18.95l.51-2a3.33,3.33,0,0,1-2-3.83Zm-17.49,7.12c-.74,3.09-3.27,6.38-6.83,6.38-2.68,0-3.82-1-3.23-3.43.88-3.7,5.08-4,8.64-4h1.68ZM73,59.42c0-.1,0-.19.07-.28L80,32a12.27,12.27,0,0,1-16.68-1.11l-8.92,35h20l.54-2.11S72.33,63.4,73,59.42Z"/><path class="cls-2" d="M121.18,59.19a2.23,2.23,0,1,1,2.22,2.22A2.2,2.2,0,0,1,121.18,59.19Zm4.11,0a1.89,1.89,0,1,0-1.89,1.88A1.89,1.89,0,0,0,125.29,59.19Z"/><path class="cls-2" d="M122.59,58h.52c.52,0,1.13,0,1.13.65a.54.54,0,0,1-.49.55h0c.13,0,.2.14.25.25l.39.94h-.54l-.29-.75c-.07-.18-.13-.25-.33-.25h-.16v1h-.48Zm.48,1h.16c.24,0,.51,0,.51-.33s-.27-.31-.51-.31h-.16Z"/><path class="cls-3" d="M75.16,28.26a14.13,14.13,0,1,1,11-23c-5-3.75-12.69-2.81-17.87,2.43A14.78,14.78,0,0,0,64,21.13a15.25,15.25,0,0,1,4.56-11.08c5.57-5.64,14-6.32,18.92-1.52a10.57,10.57,0,0,1,1.16,1.36,13,13,0,0,1,.52,2.42,7.71,7.71,0,0,0-1.37-1.81c-4-3.94-11.48-2.86-16.68,2.4C67.55,16.5,66,21.14,66.63,25a15.26,15.26,0,0,1,4.62-10c5.2-5.26,12.67-6.33,16.68-2.4a7.85,7.85,0,0,1,1.35,1.8A14.12,14.12,0,0,1,75.16,28.26Z"/></svg>