<svg id="Layer_1" data-name="Layer 1" xmlns="http://www.w3.org/2000/svg" viewBox="0 0 28.26 28.26"><defs><style>.cls-1{fill:#fff;}.cls-2{fill:#ff6e00;}</style></defs><title>Artboard 1</title><path class="cls-1" d="M28.13,12.32a8.09,8.09,0,0,0-1.38-1.82c-4-3.94-11.48-2.86-16.68,2.4C6.51,16.5,4.93,21.14,5.58,25A15.36,15.36,0,0,1,10.2,15c5.21-5.26,12.68-6.33,16.69-2.4a8.23,8.23,0,0,1,1.36,1.82c0-.09,0-.31,0-.4A8.28,8.28,0,0,0,28.13,12.32ZM7.52,10.05c5.57-5.64,14-6.32,18.92-1.52a11.8,11.8,0,0,1,1.18,1.38A12.42,12.42,0,0,0,25.1,5.23c-5-3.78-12.7-2.84-17.89,2.41A14.81,14.81,0,0,0,3,21.13,15.3,15.3,0,0,1,7.52,10.05Z"/><path class="cls-2" d="M14.13,28.26a14.13,14.13,0,1,1,10.95-23C20.1,1.46,12.4,2.4,7.21,7.64A14.78,14.78,0,0,0,3,21.13,15.29,15.29,0,0,1,7.52,10.05c5.57-5.64,14-6.32,18.92-1.52a11.52,11.52,0,0,1,1.17,1.36,14.87,14.87,0,0,1,.52,2.42,8.3,8.3,0,0,0-1.37-1.81c-4-3.94-11.48-2.86-16.68,2.4C6.51,16.5,4.94,21.14,5.59,25a15.31,15.31,0,0,1,4.62-10c5.21-5.26,12.67-6.33,16.68-2.4a7.85,7.85,0,0,1,1.35,1.8A14.11,14.11,0,0,1,14.13,28.26Z"/></svg>